<svg xmlns="http://www.w3.org/2000/svg" version="1.1" xmlns:xlink="http://www.w3.org/1999/xlink" xmlns:svgjs="http://svgjs.dev/svgjs" width="100%" height="100%" viewBox="0 0 1000 600"><rect width="1000" height="600" x="0" y="0" fill="#07172a"/><g><circle r="166.66666666666666" cx="357.7350107828776" cy="379.9573166567991" fill="#07172a" transform="matrix(0.6542158477594006,0,0,0.6542158477594007,0,51.425892392858415)"/><path d="M412.5490427755004 304.95734070622177L412.5490427755004 322.1889267899159L367.4226243553637 322.1889267899159L367.4226243553637 454.9573356740087L348.04739598374596 454.9573356740087L348.04739598374596 322.1889267899159L302.92097756360926 322.1889267899159L302.92097756360926 304.95734070622177L412.5490427755004 304.95734070622177Z " fill="#ffffff" transform="matrix(0.6542158477594006,0,0,0.6542158477594007,0,51.425892392858415)"/><path d="M704.0411417577066 320.23981109321863L704.0411417577066 335.3774255118776L664.3984577458435 335.3774255118776L664.3984577458435 452.01189960524545L647.3776951219926 452.01189960524545L647.3776951219926 335.3774255118776L607.7350111101297 335.3774255118776L607.7350111101297 320.23981109321863L704.0411417577066 320.23981109321863ZM737.76880897121 405.2470525096434Q738.1068099311162 421.2538122537756 745.7601173804222 430.8144108339813Q753.4134248297283 440.375009414187 770.096186493673 440.375009414187L770.096186493673 440.375009414187Q782.7712224901579 440.375009414187 797.908836908817 433.2287034047403L797.908836908817 433.2287034047403L802.9547083817032 446.79702765240603Q787.1169491175242 454.95733654157146 768.6958968026329 454.95733654157146L768.6958968026329 454.95733654157146Q753.4134248297283 454.95733654157146 742.6215370384356 448.5353183033524Q731.8537921728504 442.1133000651335 726.276776334397 430.62126742832066Q720.7239034216514 419.1533777172153 720.7239034216514 403.87090574431073L720.7239034216514 403.87090574431073Q720.7239034216514 387.69514552022537 726.5423485171806 376.2996845862429Q732.3607936127098 364.9283665779679 742.2835360785293 359.0133497796083Q752.1821356186413 353.0983329812488 764.5191706552198 353.0983329812488L764.5191706552198 353.0983329812488Q783.471367335678 353.0983329812488 794.2632551269708 364.9283665779679Q805.030999992556 376.73425724897953 805.030999992556 398.8250342714244L805.030999992556 398.8250342714244L805.030999992556 405.2470525096434L737.76880897121 405.2470525096434ZM764.5191706552198 367.7048030343407Q742.9836809240494 367.7048030343407 738.8069547766363 391.50972778202464L738.8069547766363 391.50972778202464L787.8170939630443 391.50972778202464Q786.947948637571 379.3416932253992 781.2260752448722 373.52324812986996Q775.4800589264657 367.7048030343407 764.5191706552198 367.7048030343407L764.5191706552198 367.7048030343407ZM907.7591488783519 452.01189960524545L888.1309502780812 452.01189960524545L862.7325924336964 414.63865060989593L838.3965233204456 452.01189960524545L818.7683247201747 452.01189960524545L852.6649924136312 401.7704712077504L820.5066153711213 355.87476943762164L840.134813971392 355.87476943762164L863.4327372792166 390.30258149664513L886.899661066994 355.87476943762164L906.1898587073586 355.87476943762164L873.1623363393753 403.17076089879066L907.7591488783519 452.01189960524545ZM971.3757581178518 372.2195301416602L949.1401235411613 372.2195301416602L949.1401235411613 427.14468612642764Q949.1401235411613 434.09784873021357 951.3129868548444 436.6328559295105Q953.4858501685276 439.1437202030999 959.4008669668872 439.1437202030999L959.4008669668872 439.1437202030999Q964.6157389197266 439.1437202030999 970.5066127923785 437.76757343776734L970.5066127923785 437.76757343776734L970.5066127923785 452.54304397081245Q962.6843048631195 454.28133462175896 956.6002875848067 454.28133462175896L956.6002875848067 454.28133462175896Q943.3941072227549 454.28133462175896 938.1068064927927 448.8733192632587Q932.7953628371229 443.4894468304662 932.7953628371229 430.8144108339813L932.7953628371229 430.8144108339813L932.7953628371229 372.2195301416602L920.2893273205912 372.2195301416602L920.2893273205912 357.1060586487087L932.7953628371229 357.1060586487087L932.7953628371229 324.0785362807255L949.1401235411613 324.0785362807255L949.1401235411613 357.1060586487087L971.3757581178518 357.1060586487087L971.3757581178518 372.2195301416602ZM1057.7832892253168 355.87476943762164L1074.1280499293553 355.87476943762164L1074.1280499293553 452.01189960524545L1057.7832892253168 452.01189960524545L1057.7832892253168 441.7511561795197Q1043.5148201321308 454.0881912160982 1028.4013486391796 454.0881912160982L1028.4013486391796 454.0881912160982Q1010.6804411698085 454.0881912160982 1002.0614166921989 444.72073604155327Q993.4665351402967 435.32913794130064 993.4665351402967 413.93850576437586L993.4665351402967 413.93850576437586L993.4665351402967 355.87476943762164L1009.8112958443353 355.87476943762164L1009.8112958443353 413.93850576437586Q1009.8112958443353 427.50683001204146 1014.3984517287774 433.2287034047403Q1019.0097505389272 438.97471972314685 1030.670783655693 438.97471972314685L1030.670783655693 438.97471972314685Q1044.214964977651 438.97471972314685 1057.7832892253168 427.14468612642764L1057.7832892253168 427.14468612642764L1057.7832892253168 355.87476943762164ZM1147.3052577490607 372.2195301416602L1125.045480246663 372.2195301416602L1125.045480246663 427.14468612642764Q1125.045480246663 434.09784873021357 1127.218343560346 436.6328559295105Q1129.3912068740292 439.1437202030999 1135.3062236723886 439.1437202030999L1135.3062236723886 439.1437202030999Q1140.521095625228 439.1437202030999 1146.4361124235875 437.76757343776734L1146.4361124235875 437.76757343776734L1146.4361124235875 452.54304397081245Q1138.6138044943286 454.28133462175896 1132.5297872160158 454.28133462175896L1132.5297872160158 454.28133462175896Q1119.323606853964 454.28133462175896 1114.0121631982943 448.8733192632587Q1108.7007195426245 443.4894468304662 1108.7007195426245 430.8144108339813L1108.7007195426245 430.8144108339813L1108.7007195426245 372.2195301416602L1096.1946840260925 372.2195301416602L1096.1946840260925 357.1060586487087L1108.7007195426245 357.1060586487087L1108.7007195426245 324.0785362807255L1125.045480246663 324.0785362807255L1125.045480246663 357.1060586487087L1147.3052577490607 357.1060586487087L1147.3052577490607 372.2195301416602ZM1170.2410371712717 337.81586100834426L1170.2410371712717 311.5483578384862L1186.5857978753102 311.5483578384862L1186.5857978753102 337.81586100834426L1170.2410371712717 337.81586100834426ZM1170.2410371712717 452.01189960524545L1170.2410371712717 355.87476943762164L1186.5857978753102 355.87476943762164L1186.5857978753102 452.01189960524545L1170.2410371712717 452.01189960524545ZM1242.3800991855505 454.28133462175896Q1229.3429193034522 454.28133462175896 1223.6210459107533 449.0664626689194Q1217.8750295923464 443.85159071608 1217.8750295923464 431.4904127537938L1217.8750295923464 431.4904127537938L1217.8750295923464 304.95733912031415L1234.2197902963853 304.95733912031415L1234.2197902963853 427.14468612642764Q1234.2197902963853 434.09784873021357 1236.3926536100685 436.6328559295105Q1238.5655169237516 439.1437202030999 1244.649534202064 439.1437202030999L1244.649534202064 439.1437202030999Q1249.5022622692895 439.1437202030999 1253.3409874567965 438.1055743976736L1253.3409874567965 438.1055743976736L1253.3409874567965 453.05004541067177Q1246.3878248530104 454.28133462175896 1242.3800991855505 454.28133462175896L1242.3800991855505 454.28133462175896ZM1302.5201271231576 454.95733654157146Q1291.9213827375256 454.95733654157146 1283.76107384836 453.21904589062495Q1275.5766220334872 451.48075523967844 1266.7161682988012 447.3281720179729L1266.7161682988012 447.3281720179729L1266.7161682988012 431.15241179388755Q1283.229929482793 440.375009414187 1302.5201271231576 440.375009414187L1302.5201271231576 440.375009414187Q1312.273869109024 440.375009414187 1316.52302403356 436.46385544955746Q1320.7721789580955 432.5527014849278 1320.7721789580955 426.1065403210012L1320.7721789580955 426.1065403210012Q1320.7721789580955 419.85352256273546 1317.3921693590332 416.90808562640945Q1314.0121597599705 413.93850576437586 1306.3588523106646 411.8622141535231L1306.3588523106646 411.8622141535231L1295.0599630795123 409.08577769715026Q1282.8919285228867 406.1161978351167 1275.9387659191007 399.69417959689764Q1268.985603315315 393.24801843297115 1268.985603315315 380.74198291643944L1268.985603315315 380.74198291643944Q1268.985603315315 367.7048030343407 1277.5080560900942 360.41363947064855Q1286.0063659391658 353.0983329812488 1302.5201271231576 353.0983329812488L1302.5201271231576 353.0983329812488Q1311.0425798979368 353.0983329812488 1318.3578863873367 354.7641948550725Q1325.6490499510292 356.40591380318864 1332.940213514721 359.35135073951466L1332.940213514721 359.35135073951466L1332.940213514721 374.65796563812677Q1325.818050430982 371.35038481618693 1318.864887827196 369.5396653881176Q1311.91172522341 367.7048030343407 1303.0512714887245 367.7048030343407L1303.0512714887245 367.7048030343407Q1293.828673868425 367.7048030343407 1289.7485194238425 371.2779560390641Q1285.6683649792599 374.82696611807984 1285.6683649792599 380.21083855087244L1285.6683649792599 380.21083855087244Q1285.6683649792599 386.12585534923204 1289.2415179839832 389.16786398838843Q1292.7905280629989 392.2098726275447 1299.5746901868315 393.9481632784912L1299.5746901868315 393.9481632784912L1311.0425798979368 396.555599254911Q1319.7340331526693 398.6560337914713 1325.3834777682455 401.7704712077504Q1331.0329223838216 404.90905154973717 1334.243931502931 410.5584961653132Q1337.479083547748 416.20794078088926 1337.479083547748 425.5995388811419L1337.479083547748 425.5995388811419Q1337.479083547748 439.6748645686669 1327.9909137446652 447.3281720179729Q1318.5268868672897 454.95733654157146 1302.5201271231576 454.95733654157146L1302.5201271231576 454.95733654157146Z " fill="#ffffff" transform="matrix(0.6542158477594006,0,0,0.6542158477594007,0,51.425892392858415)"/></g></svg>